<?xml version="1.0" encoding="utf-8"?>
<!-- Generator: Adobe Illustrator 22.1.0, SVG Export Plug-In . SVG Version: 6.00 Build 0)  -->
<svg version="1.1"
	 id="svg8" inkscape:version="0.92.2 (5c3e80d, 2017-08-06)" sodipodi:docname="IPhone_X_vector.svg" xmlns:cc="http://creativecommons.org/ns#" xmlns:dc="http://purl.org/dc/elements/1.1/" xmlns:inkscape="http://www.inkscape.org/namespaces/inkscape" xmlns:rdf="http://www.w3.org/1999/02/22-rdf-syntax-ns#" xmlns:sodipodi="http://sodipodi.sourceforge.net/DTD/sodipodi-0.dtd" xmlns:svg="http://www.w3.org/2000/svg"
	 xmlns="http://www.w3.org/2000/svg" xmlns:xlink="http://www.w3.org/1999/xlink" x="0px" y="0px" viewBox="0 0 360 722"
	 style="enable-background:new 0 0 360 722;" xml:space="preserve">
<sodipodi:namedview  bordercolor="#666666" borderopacity="1.0" id="base" inkscape:current-layer="layer2" inkscape:cx="81.881418" inkscape:cy="397.7128" inkscape:document-units="px" inkscape:guide-bbox="true" inkscape:lockguides="true" inkscape:measure-end="0,0" inkscape:measure-start="0,0" inkscape:pageopacity="0.0" inkscape:pageshadow="2" inkscape:snap-global="true" inkscape:snap-smooth-nodes="true" inkscape:window-height="1057" inkscape:window-maximized="1" inkscape:window-width="1888" inkscape:window-x="24" inkscape:window-y="-8" inkscape:zoom="1" pagecolor="#ffffff" showgrid="false" showguides="false" units="px">
	<sodipodi:guide  id="guide5275" inkscape:locked="true" orientation="1,0" position="59.259581,183.29484"></sodipodi:guide>
	<sodipodi:guide  id="guide5277" inkscape:locked="true" orientation="0,1" position="56.731865,181.79475"></sodipodi:guide>
</sodipodi:namedview>
<g>
	<g>
		<path d="M304.6,67.9c0-3.3,2.7-6,6-6c3.3,0,6,2.7,6,6v12c0,3.3-2.7,6-6,6c-3.3,0-6,2.7-6,6c0,3.3-2.7,6-6,6c-3.3,0-6-2.7-6-6
			c0-3.3-2.7-6-6-6c-3.3,0-6-2.7-6-6v-12c0-3.3,2.7-6,6-6c3.3,0,6,2.7,6,6c0,3.3,2.7,6,6,6C301.9,73.9,304.6,71.3,304.6,67.9z
			 M328.6,145.9c-3.3,0-6-2.7-6-6s-2.7-6-6-6c-3.3,0-6-2.7-6-6v-12c0-3.3,2.7-6,6-6c3.3,0,6,2.7,6,6c0,3.3,2.7,6,6,6l0,0V145.9z
			 M268.6,145.9v-24c3.3,0,6-2.7,6-6l0,0c0-3.3,2.7-6,6-6c3.3,0,6,2.7,6,6v12c0,3.3-2.7,6-6,6c-3.3,0-6,2.7-6,6
			S271.9,145.9,268.6,145.9z"/>
	</g>
	<g>
		<path d="M304.6,151.9c0-3.3,2.7-6,6-6c3.3,0,6,2.7,6,6v12c0,3.3-2.7,6-6,6c-3.3,0-6,2.7-6,6c0,3.3-2.7,6-6,6c-3.3,0-6-2.7-6-6
			c0-3.3-2.7-6-6-6c-3.3,0-6-2.7-6-6v-12c0-3.3,2.7-6,6-6c3.3,0,6,2.7,6,6c0,3.3,2.7,6,6,6C301.9,157.9,304.6,155.3,304.6,151.9z
			 M328.6,229.9c-3.3,0-6-2.7-6-6s-2.7-6-6-6c-3.3,0-6-2.7-6-6v-12c0-3.3,2.7-6,6-6c3.3,0,6,2.7,6,6c0,3.3,2.7,6,6,6l0,0V229.9z
			 M268.6,229.9v-24c3.3,0,6-2.7,6-6l0,0c0-3.3,2.7-6,6-6c3.3,0,6,2.7,6,6v12c0,3.3-2.7,6-6,6c-3.3,0-6,2.7-6,6
			S271.9,229.9,268.6,229.9z"/>
	</g>
	<g>
		<path d="M304.6,235.9c0-3.3,2.7-6,6-6c3.3,0,6,2.7,6,6v12c0,3.3-2.7,6-6,6c-3.3,0-6,2.7-6,6c0,3.3-2.7,6-6,6c-3.3,0-6-2.7-6-6
			c0-3.3-2.7-6-6-6c-3.3,0-6-2.7-6-6v-12c0-3.3,2.7-6,6-6c3.3,0,6,2.7,6,6c0,3.3,2.7,6,6,6C301.9,241.9,304.6,239.3,304.6,235.9z
			 M328.6,313.9c-3.3,0-6-2.7-6-6c0-3.3-2.7-6-6-6c-3.3,0-6-2.7-6-6v-12c0-3.3,2.7-6,6-6c3.3,0,6,2.7,6,6c0,3.3,2.7,6,6,6l0,0V313.9
			z M268.6,313.9v-24c3.3,0,6-2.7,6-6l0,0c0-3.3,2.7-6,6-6c3.3,0,6,2.7,6,6v12c0,3.3-2.7,6-6,6c-3.3,0-6,2.7-6,6
			C274.6,311.3,271.9,313.9,268.6,313.9z"/>
	</g>
	<g>
		<path d="M304.6,319.9c0-3.3,2.7-6,6-6c3.3,0,6,2.7,6,6v12c0,3.3-2.7,6-6,6c-3.3,0-6,2.7-6,6c0,3.3-2.7,6-6,6c-3.3,0-6-2.7-6-6
			c0-3.3-2.7-6-6-6c-3.3,0-6-2.7-6-6v-12c0-3.3,2.7-6,6-6c3.3,0,6,2.7,6,6c0,3.3,2.7,6,6,6C301.9,325.9,304.6,323.3,304.6,319.9z
			 M328.6,397.9c-3.3,0-6-2.7-6-6c0-3.3-2.7-6-6-6c-3.3,0-6-2.7-6-6v-12c0-3.3,2.7-6,6-6c3.3,0,6,2.7,6,6c0,3.3,2.7,6,6,6l0,0V397.9
			z M268.6,397.9v-24c3.3,0,6-2.7,6-6l0,0c0-3.3,2.7-6,6-6c3.3,0,6,2.7,6,6v12c0,3.3-2.7,6-6,6c-3.3,0-6,2.7-6,6
			C274.6,395.3,271.9,397.9,268.6,397.9z"/>
	</g>
	<g>
		<path d="M304.6,403.9c0-3.3,2.7-6,6-6c3.3,0,6,2.7,6,6v12c0,3.3-2.7,6-6,6c-3.3,0-6,2.7-6,6c0,3.3-2.7,6-6,6c-3.3,0-6-2.7-6-6
			c0-3.3-2.7-6-6-6c-3.3,0-6-2.7-6-6v-12c0-3.3,2.7-6,6-6c3.3,0,6,2.7,6,6c0,3.3,2.7,6,6,6C301.9,409.9,304.6,407.3,304.6,403.9z
			 M328.6,481.9c-3.3,0-6-2.7-6-6c0-3.3-2.7-6-6-6c-3.3,0-6-2.7-6-6v-12c0-3.3,2.7-6,6-6c3.3,0,6,2.7,6,6c0,3.3,2.7,6,6,6l0,0V481.9
			z M268.6,481.9v-24c3.3,0,6-2.7,6-6l0,0c0-3.3,2.7-6,6-6c3.3,0,6,2.7,6,6v12c0,3.3-2.7,6-6,6c-3.3,0-6,2.7-6,6
			C274.6,479.3,271.9,481.9,268.6,481.9z"/>
	</g>
	<g>
		<path d="M304.6,487.9c0-3.3,2.7-6,6-6c3.3,0,6,2.7,6,6v12c0,3.3-2.7,6-6,6c-3.3,0-6,2.7-6,6c0,3.3-2.7,6-6,6c-3.3,0-6-2.7-6-6
			c0-3.3-2.7-6-6-6c-3.3,0-6-2.7-6-6v-12c0-3.3,2.7-6,6-6c3.3,0,6,2.7,6,6c0,3.3,2.7,6,6,6C301.9,493.9,304.6,491.3,304.6,487.9z
			 M328.6,565.9c-3.3,0-6-2.7-6-6c0-3.3-2.7-6-6-6c-3.3,0-6-2.7-6-6v-12c0-3.3,2.7-6,6-6c3.3,0,6,2.7,6,6c0,3.3,2.7,6,6,6l0,0V565.9
			z M268.6,565.9v-24c3.3,0,6-2.7,6-6l0,0c0-3.3,2.7-6,6-6c3.3,0,6,2.7,6,6v12c0,3.3-2.7,6-6,6c-3.3,0-6,2.7-6,6
			C274.6,563.3,271.9,565.9,268.6,565.9z"/>
	</g>
	<g>
		<path d="M304.6,571.9c0-3.3,2.7-6,6-6c3.3,0,6,2.7,6,6v12c0,3.3-2.7,6-6,6c-3.3,0-6,2.7-6,6c0,3.3-2.7,6-6,6c-3.3,0-6-2.7-6-6
			c0-3.3-2.7-6-6-6c-3.3,0-6-2.7-6-6v-12c0-3.3,2.7-6,6-6c3.3,0,6,2.7,6,6c0,3.3,2.7,6,6,6C301.9,577.9,304.6,575.3,304.6,571.9z
			 M328.6,649.9c-3.3,0-6-2.7-6-6c0-3.3-2.7-6-6-6c-3.3,0-6-2.7-6-6v-12c0-3.3,2.7-6,6-6c3.3,0,6,2.7,6,6c0,3.3,2.7,6,6,6l0,0V649.9
			z M268.6,649.9v-24c3.3,0,6-2.7,6-6l0,0c0-3.3,2.7-6,6-6c3.3,0,6,2.7,6,6v12c0,3.3-2.7,6-6,6c-3.3,0-6,2.7-6,6
			C274.6,647.3,271.9,649.9,268.6,649.9z"/>
	</g>
	<path d="M244.6,67.9c0-3.3,2.7-6,6-6c3.3,0,6,2.7,6,6v12c0,3.3-2.7,6-6,6c-3.3,0-6,2.7-6,6c0,3.3-2.7,6-6,6c-3.3,0-6-2.7-6-6
		c0-3.3-2.7-6-6-6c-3.3,0-6-2.7-6-6v-12c0-3.3,2.7-6,6-6c3.3,0,6,2.7,6,6c0,3.3,2.7,6,6,6C241.9,73.9,244.6,71.3,244.6,67.9z
		 M268.6,145.9c-3.3,0-6-2.7-6-6s-2.7-6-6-6c-3.3,0-6-2.7-6-6v-12c0-3.3,2.7-6,6-6c3.3,0,6,2.7,6,6c0,3.3,2.7,6,6,6l0,0V145.9z
		 M208.6,145.9v-24c3.3,0,6-2.7,6-6l0,0c0-3.3,2.7-6,6-6c3.3,0,6,2.7,6,6v12c0,3.3-2.7,6-6,6c-3.3,0-6,2.7-6,6
		S211.9,145.9,208.6,145.9z"/>
	<g>
		<path d="M244.6,151.9c0-3.3,2.7-6,6-6c3.3,0,6,2.7,6,6v12c0,3.3-2.7,6-6,6c-3.3,0-6,2.7-6,6c0,3.3-2.7,6-6,6c-3.3,0-6-2.7-6-6
			c0-3.3-2.7-6-6-6c-3.3,0-6-2.7-6-6v-12c0-3.3,2.7-6,6-6c3.3,0,6,2.7,6,6c0,3.3,2.7,6,6,6C241.9,157.9,244.6,155.3,244.6,151.9z
			 M268.6,229.9c-3.3,0-6-2.7-6-6s-2.7-6-6-6c-3.3,0-6-2.7-6-6v-12c0-3.3,2.7-6,6-6c3.3,0,6,2.7,6,6c0,3.3,2.7,6,6,6l0,0V229.9z
			 M208.6,229.9v-24c3.3,0,6-2.7,6-6l0,0c0-3.3,2.7-6,6-6c3.3,0,6,2.7,6,6v12c0,3.3-2.7,6-6,6c-3.3,0-6,2.7-6,6
			S211.9,229.9,208.6,229.9z"/>
	</g>
	<g>
		<path d="M244.6,235.9c0-3.3,2.7-6,6-6c3.3,0,6,2.7,6,6v12c0,3.3-2.7,6-6,6c-3.3,0-6,2.7-6,6c0,3.3-2.7,6-6,6c-3.3,0-6-2.7-6-6
			c0-3.3-2.7-6-6-6c-3.3,0-6-2.7-6-6v-12c0-3.3,2.7-6,6-6c3.3,0,6,2.7,6,6c0,3.3,2.7,6,6,6C241.9,241.9,244.6,239.3,244.6,235.9z
			 M268.6,313.9c-3.3,0-6-2.7-6-6c0-3.3-2.7-6-6-6c-3.3,0-6-2.7-6-6v-12c0-3.3,2.7-6,6-6c3.3,0,6,2.7,6,6c0,3.3,2.7,6,6,6l0,0V313.9
			z M208.6,313.9v-24c3.3,0,6-2.7,6-6l0,0c0-3.3,2.7-6,6-6c3.3,0,6,2.7,6,6v12c0,3.3-2.7,6-6,6c-3.3,0-6,2.7-6,6
			C214.6,311.3,211.9,313.9,208.6,313.9z"/>
	</g>
	<g>
		<path d="M244.6,319.9c0-3.3,2.7-6,6-6c3.3,0,6,2.7,6,6v12c0,3.3-2.7,6-6,6c-3.3,0-6,2.7-6,6c0,3.3-2.7,6-6,6c-3.3,0-6-2.7-6-6
			c0-3.3-2.7-6-6-6c-3.3,0-6-2.7-6-6v-12c0-3.3,2.7-6,6-6c3.3,0,6,2.7,6,6c0,3.3,2.7,6,6,6C241.9,325.9,244.6,323.3,244.6,319.9z
			 M268.6,397.9c-3.3,0-6-2.7-6-6c0-3.3-2.7-6-6-6c-3.3,0-6-2.7-6-6v-12c0-3.3,2.7-6,6-6c3.3,0,6,2.7,6,6c0,3.3,2.7,6,6,6l0,0V397.9
			z M208.6,397.9v-24c3.3,0,6-2.7,6-6l0,0c0-3.3,2.7-6,6-6c3.3,0,6,2.7,6,6v12c0,3.3-2.7,6-6,6c-3.3,0-6,2.7-6,6
			C214.6,395.3,211.9,397.9,208.6,397.9z"/>
	</g>
	<g>
		<path d="M244.6,403.9c0-3.3,2.7-6,6-6c3.3,0,6,2.7,6,6v12c0,3.3-2.7,6-6,6c-3.3,0-6,2.7-6,6c0,3.3-2.7,6-6,6c-3.3,0-6-2.7-6-6
			c0-3.3-2.7-6-6-6c-3.3,0-6-2.7-6-6v-12c0-3.3,2.7-6,6-6c3.3,0,6,2.7,6,6c0,3.3,2.7,6,6,6C241.9,409.9,244.6,407.3,244.6,403.9z
			 M268.6,481.9c-3.3,0-6-2.7-6-6c0-3.3-2.7-6-6-6c-3.3,0-6-2.7-6-6v-12c0-3.3,2.7-6,6-6c3.3,0,6,2.7,6,6c0,3.3,2.7,6,6,6l0,0V481.9
			z M208.6,481.9v-24c3.3,0,6-2.7,6-6l0,0c0-3.3,2.7-6,6-6c3.3,0,6,2.7,6,6v12c0,3.3-2.7,6-6,6c-3.3,0-6,2.7-6,6
			C214.6,479.3,211.9,481.9,208.6,481.9z"/>
	</g>
	<g>
		<path d="M244.6,487.9c0-3.3,2.7-6,6-6c3.3,0,6,2.7,6,6v12c0,3.3-2.7,6-6,6c-3.3,0-6,2.7-6,6c0,3.3-2.7,6-6,6c-3.3,0-6-2.7-6-6
			c0-3.3-2.7-6-6-6c-3.3,0-6-2.7-6-6v-12c0-3.3,2.7-6,6-6c3.3,0,6,2.7,6,6c0,3.3,2.7,6,6,6C241.9,493.9,244.6,491.3,244.6,487.9z
			 M268.6,565.9c-3.3,0-6-2.7-6-6c0-3.3-2.7-6-6-6c-3.3,0-6-2.7-6-6v-12c0-3.3,2.7-6,6-6c3.3,0,6,2.7,6,6c0,3.3,2.7,6,6,6l0,0V565.9
			z M208.6,565.9v-24c3.3,0,6-2.7,6-6l0,0c0-3.3,2.7-6,6-6c3.3,0,6,2.7,6,6v12c0,3.3-2.7,6-6,6c-3.3,0-6,2.7-6,6
			C214.6,563.3,211.9,565.9,208.6,565.9z"/>
	</g>
	<g>
		<path d="M244.6,571.9c0-3.3,2.7-6,6-6c3.3,0,6,2.7,6,6v12c0,3.3-2.7,6-6,6c-3.3,0-6,2.7-6,6c0,3.3-2.7,6-6,6c-3.3,0-6-2.7-6-6
			c0-3.3-2.7-6-6-6c-3.3,0-6-2.7-6-6v-12c0-3.3,2.7-6,6-6c3.3,0,6,2.7,6,6c0,3.3,2.7,6,6,6C241.9,577.9,244.6,575.3,244.6,571.9z
			 M268.6,649.9c-3.3,0-6-2.7-6-6c0-3.3-2.7-6-6-6c-3.3,0-6-2.7-6-6v-12c0-3.3,2.7-6,6-6c3.3,0,6,2.7,6,6c0,3.3,2.7,6,6,6l0,0V649.9
			z M208.6,649.9v-24c3.3,0,6-2.7,6-6l0,0c0-3.3,2.7-6,6-6c3.3,0,6,2.7,6,6v12c0,3.3-2.7,6-6,6c-3.3,0-6,2.7-6,6
			C214.6,647.3,211.9,649.9,208.6,649.9z"/>
	</g>
	<g>
		<path d="M184.6,67.9c0-3.3,2.7-6,6-6c3.3,0,6,2.7,6,6v12c0,3.3-2.7,6-6,6c-3.3,0-6,2.7-6,6c0,3.3-2.7,6-6,6c-3.3,0-6-2.7-6-6
			c0-3.3-2.7-6-6-6c-3.3,0-6-2.7-6-6v-12c0-3.3,2.7-6,6-6c3.3,0,6,2.7,6,6c0,3.3,2.7,6,6,6C181.9,73.9,184.6,71.3,184.6,67.9z
			 M208.6,145.9c-3.3,0-6-2.7-6-6s-2.7-6-6-6c-3.3,0-6-2.7-6-6v-12c0-3.3,2.7-6,6-6c3.3,0,6,2.7,6,6c0,3.3,2.7,6,6,6l0,0V145.9z
			 M148.6,145.9v-24c3.3,0,6-2.7,6-6l0,0c0-3.3,2.7-6,6-6c3.3,0,6,2.7,6,6v12c0,3.3-2.7,6-6,6c-3.3,0-6,2.7-6,6
			S151.9,145.9,148.6,145.9z"/>
	</g>
	<g>
		<path d="M184.6,151.9c0-3.3,2.7-6,6-6c3.3,0,6,2.7,6,6v12c0,3.3-2.7,6-6,6c-3.3,0-6,2.7-6,6c0,3.3-2.7,6-6,6c-3.3,0-6-2.7-6-6
			c0-3.3-2.7-6-6-6c-3.3,0-6-2.7-6-6v-12c0-3.3,2.7-6,6-6c3.3,0,6,2.7,6,6c0,3.3,2.7,6,6,6C181.9,157.9,184.6,155.3,184.6,151.9z
			 M208.6,229.9c-3.3,0-6-2.7-6-6s-2.7-6-6-6c-3.3,0-6-2.7-6-6v-12c0-3.3,2.7-6,6-6c3.3,0,6,2.7,6,6c0,3.3,2.7,6,6,6l0,0V229.9z
			 M148.6,229.9v-24c3.3,0,6-2.7,6-6l0,0c0-3.3,2.7-6,6-6c3.3,0,6,2.7,6,6v12c0,3.3-2.7,6-6,6c-3.3,0-6,2.7-6,6
			S151.9,229.9,148.6,229.9z"/>
	</g>
	<g>
		<path d="M184.6,235.9c0-3.3,2.7-6,6-6c3.3,0,6,2.7,6,6v12c0,3.3-2.7,6-6,6c-3.3,0-6,2.7-6,6c0,3.3-2.7,6-6,6c-3.3,0-6-2.7-6-6
			c0-3.3-2.7-6-6-6c-3.3,0-6-2.7-6-6v-12c0-3.3,2.7-6,6-6c3.3,0,6,2.7,6,6c0,3.3,2.7,6,6,6C181.9,241.9,184.6,239.3,184.6,235.9z
			 M208.6,313.9c-3.3,0-6-2.7-6-6c0-3.3-2.7-6-6-6c-3.3,0-6-2.7-6-6v-12c0-3.3,2.7-6,6-6c3.3,0,6,2.7,6,6c0,3.3,2.7,6,6,6l0,0V313.9
			z M148.6,313.9v-24c3.3,0,6-2.7,6-6l0,0c0-3.3,2.7-6,6-6c3.3,0,6,2.7,6,6v12c0,3.3-2.7,6-6,6c-3.3,0-6,2.7-6,6
			C154.6,311.3,151.9,313.9,148.6,313.9z"/>
	</g>
	<g>
		<path d="M184.6,319.9c0-3.3,2.7-6,6-6c3.3,0,6,2.7,6,6v12c0,3.3-2.7,6-6,6c-3.3,0-6,2.7-6,6c0,3.3-2.7,6-6,6c-3.3,0-6-2.7-6-6
			c0-3.3-2.7-6-6-6c-3.3,0-6-2.7-6-6v-12c0-3.3,2.7-6,6-6c3.3,0,6,2.7,6,6c0,3.3,2.7,6,6,6C181.9,325.9,184.6,323.3,184.6,319.9z
			 M208.6,397.9c-3.3,0-6-2.7-6-6c0-3.3-2.7-6-6-6c-3.3,0-6-2.7-6-6v-12c0-3.3,2.7-6,6-6c3.3,0,6,2.7,6,6c0,3.3,2.7,6,6,6l0,0V397.9
			z M148.6,397.9v-24c3.3,0,6-2.7,6-6l0,0c0-3.3,2.7-6,6-6c3.3,0,6,2.7,6,6v12c0,3.3-2.7,6-6,6c-3.3,0-6,2.7-6,6
			C154.6,395.3,151.9,397.9,148.6,397.9z"/>
	</g>
	<g>
		<path d="M184.6,403.9c0-3.3,2.7-6,6-6c3.3,0,6,2.7,6,6v12c0,3.3-2.7,6-6,6c-3.3,0-6,2.7-6,6c0,3.3-2.7,6-6,6c-3.3,0-6-2.7-6-6
			c0-3.3-2.7-6-6-6c-3.3,0-6-2.7-6-6v-12c0-3.3,2.7-6,6-6c3.3,0,6,2.7,6,6c0,3.3,2.7,6,6,6C181.9,409.9,184.6,407.3,184.6,403.9z
			 M208.6,481.9c-3.3,0-6-2.7-6-6c0-3.3-2.7-6-6-6c-3.3,0-6-2.7-6-6v-12c0-3.3,2.7-6,6-6c3.3,0,6,2.7,6,6c0,3.3,2.7,6,6,6l0,0V481.9
			z M148.6,481.9v-24c3.3,0,6-2.7,6-6l0,0c0-3.3,2.7-6,6-6c3.3,0,6,2.7,6,6v12c0,3.3-2.7,6-6,6c-3.3,0-6,2.7-6,6
			C154.6,479.3,151.9,481.9,148.6,481.9z"/>
	</g>
	<g>
		<path d="M184.6,487.9c0-3.3,2.7-6,6-6c3.3,0,6,2.7,6,6v12c0,3.3-2.7,6-6,6c-3.3,0-6,2.7-6,6c0,3.3-2.7,6-6,6c-3.3,0-6-2.7-6-6
			c0-3.3-2.7-6-6-6c-3.3,0-6-2.7-6-6v-12c0-3.3,2.7-6,6-6c3.3,0,6,2.7,6,6c0,3.3,2.7,6,6,6C181.9,493.9,184.6,491.3,184.6,487.9z
			 M208.6,565.9c-3.3,0-6-2.7-6-6c0-3.3-2.7-6-6-6c-3.3,0-6-2.7-6-6v-12c0-3.3,2.7-6,6-6c3.3,0,6,2.7,6,6c0,3.3,2.7,6,6,6l0,0V565.9
			z M148.6,565.9v-24c3.3,0,6-2.7,6-6l0,0c0-3.3,2.7-6,6-6c3.3,0,6,2.7,6,6v12c0,3.3-2.7,6-6,6c-3.3,0-6,2.7-6,6
			C154.6,563.3,151.9,565.9,148.6,565.9z"/>
	</g>
	<g>
		<path d="M184.6,571.9c0-3.3,2.7-6,6-6c3.3,0,6,2.7,6,6v12c0,3.3-2.7,6-6,6c-3.3,0-6,2.7-6,6c0,3.3-2.7,6-6,6c-3.3,0-6-2.7-6-6
			c0-3.3-2.7-6-6-6c-3.3,0-6-2.7-6-6v-12c0-3.3,2.7-6,6-6c3.3,0,6,2.7,6,6c0,3.3,2.7,6,6,6C181.9,577.9,184.6,575.3,184.6,571.9z
			 M208.6,649.9c-3.3,0-6-2.7-6-6c0-3.3-2.7-6-6-6c-3.3,0-6-2.7-6-6v-12c0-3.3,2.7-6,6-6c3.3,0,6,2.7,6,6c0,3.3,2.7,6,6,6l0,0V649.9
			z M148.6,649.9v-24c3.3,0,6-2.7,6-6l0,0c0-3.3,2.7-6,6-6c3.3,0,6,2.7,6,6v12c0,3.3-2.7,6-6,6c-3.3,0-6,2.7-6,6
			C154.6,647.3,151.9,649.9,148.6,649.9z"/>
	</g>
	<g>
		<path d="M124.6,235.9c0-3.3,2.7-6,6-6c3.3,0,6,2.7,6,6v12c0,3.3-2.7,6-6,6c-3.3,0-6,2.7-6,6c0,3.3-2.7,6-6,6c-3.3,0-6-2.7-6-6
			c0-3.3-2.7-6-6-6c-3.3,0-6-2.7-6-6v-12c0-3.3,2.7-6,6-6c3.3,0,6,2.7,6,6c0,3.3,2.7,6,6,6C121.9,241.9,124.6,239.3,124.6,235.9z
			 M148.6,313.9c-3.3,0-6-2.7-6-6c0-3.3-2.7-6-6-6c-3.3,0-6-2.7-6-6v-12c0-3.3,2.7-6,6-6c3.3,0,6,2.7,6,6c0,3.3,2.7,6,6,6l0,0V313.9
			z M88.6,313.9v-24c3.3,0,6-2.7,6-6l0,0c0-3.3,2.7-6,6-6c3.3,0,6,2.7,6,6v12c0,3.3-2.7,6-6,6c-3.3,0-6,2.7-6,6
			C94.6,311.3,91.9,313.9,88.6,313.9z"/>
	</g>
	<g>
		<path d="M124.6,319.9c0-3.3,2.7-6,6-6c3.3,0,6,2.7,6,6v12c0,3.3-2.7,6-6,6c-3.3,0-6,2.7-6,6c0,3.3-2.7,6-6,6c-3.3,0-6-2.7-6-6
			c0-3.3-2.7-6-6-6c-3.3,0-6-2.7-6-6v-12c0-3.3,2.7-6,6-6c3.3,0,6,2.7,6,6c0,3.3,2.7,6,6,6C121.9,325.9,124.6,323.3,124.6,319.9z
			 M148.6,397.9c-3.3,0-6-2.7-6-6c0-3.3-2.7-6-6-6c-3.3,0-6-2.7-6-6v-12c0-3.3,2.7-6,6-6c3.3,0,6,2.7,6,6c0,3.3,2.7,6,6,6l0,0V397.9
			z M88.6,397.9v-24c3.3,0,6-2.7,6-6l0,0c0-3.3,2.7-6,6-6c3.3,0,6,2.7,6,6v12c0,3.3-2.7,6-6,6c-3.3,0-6,2.7-6,6
			C94.6,395.3,91.9,397.9,88.6,397.9z"/>
	</g>
	<g>
		<path d="M124.6,403.9c0-3.3,2.7-6,6-6c3.3,0,6,2.7,6,6v12c0,3.3-2.7,6-6,6c-3.3,0-6,2.7-6,6c0,3.3-2.7,6-6,6c-3.3,0-6-2.7-6-6
			c0-3.3-2.7-6-6-6c-3.3,0-6-2.7-6-6v-12c0-3.3,2.7-6,6-6c3.3,0,6,2.7,6,6c0,3.3,2.7,6,6,6C121.9,409.9,124.6,407.3,124.6,403.9z
			 M148.6,481.9c-3.3,0-6-2.7-6-6c0-3.3-2.7-6-6-6c-3.3,0-6-2.7-6-6v-12c0-3.3,2.7-6,6-6c3.3,0,6,2.7,6,6c0,3.3,2.7,6,6,6l0,0V481.9
			z M88.6,481.9v-24c3.3,0,6-2.7,6-6l0,0c0-3.3,2.7-6,6-6c3.3,0,6,2.7,6,6v12c0,3.3-2.7,6-6,6c-3.3,0-6,2.7-6,6
			C94.6,479.3,91.9,481.9,88.6,481.9z"/>
	</g>
	<g>
		<path d="M124.6,487.9c0-3.3,2.7-6,6-6c3.3,0,6,2.7,6,6v12c0,3.3-2.7,6-6,6c-3.3,0-6,2.7-6,6c0,3.3-2.7,6-6,6c-3.3,0-6-2.7-6-6
			c0-3.3-2.7-6-6-6c-3.3,0-6-2.7-6-6v-12c0-3.3,2.7-6,6-6c3.3,0,6,2.7,6,6c0,3.3,2.7,6,6,6C121.9,493.9,124.6,491.3,124.6,487.9z
			 M148.6,565.9c-3.3,0-6-2.7-6-6c0-3.3-2.7-6-6-6c-3.3,0-6-2.7-6-6v-12c0-3.3,2.7-6,6-6c3.3,0,6,2.7,6,6c0,3.3,2.7,6,6,6l0,0V565.9
			z M88.6,565.9v-24c3.3,0,6-2.7,6-6l0,0c0-3.3,2.7-6,6-6c3.3,0,6,2.7,6,6v12c0,3.3-2.7,6-6,6c-3.3,0-6,2.7-6,6
			C94.6,563.3,91.9,565.9,88.6,565.9z"/>
	</g>
	<g>
		<path d="M124.6,571.9c0-3.3,2.7-6,6-6c3.3,0,6,2.7,6,6v12c0,3.3-2.7,6-6,6c-3.3,0-6,2.7-6,6c0,3.3-2.7,6-6,6c-3.3,0-6-2.7-6-6
			c0-3.3-2.7-6-6-6c-3.3,0-6-2.7-6-6v-12c0-3.3,2.7-6,6-6c3.3,0,6,2.7,6,6c0,3.3,2.7,6,6,6C121.9,577.9,124.6,575.3,124.6,571.9z
			 M148.6,649.9c-3.3,0-6-2.7-6-6c0-3.3-2.7-6-6-6c-3.3,0-6-2.7-6-6v-12c0-3.3,2.7-6,6-6c3.3,0,6,2.7,6,6c0,3.3,2.7,6,6,6l0,0V649.9
			z M88.6,649.9v-24c3.3,0,6-2.7,6-6l0,0c0-3.3,2.7-6,6-6c3.3,0,6,2.7,6,6v12c0,3.3-2.7,6-6,6c-3.3,0-6,2.7-6,6
			C94.6,647.3,91.9,649.9,88.6,649.9z"/>
	</g>
	<g>
		<path d="M64.6,235.9c0-3.3,2.7-6,6-6c3.3,0,6,2.7,6,6v12c0,3.3-2.7,6-6,6c-3.3,0-6,2.7-6,6c0,3.3-2.7,6-6,6s-6-2.7-6-6
			c0-3.3-2.7-6-6-6s-6-2.7-6-6v-12c0-3.3,2.7-6,6-6s6,2.7,6,6c0,3.3,2.7,6,6,6S64.6,239.3,64.6,235.9z M88.6,313.9c-3.3,0-6-2.7-6-6
			c0-3.3-2.7-6-6-6c-3.3,0-6-2.7-6-6v-12c0-3.3,2.7-6,6-6c3.3,0,6,2.7,6,6c0,3.3,2.7,6,6,6l0,0V313.9z M28.6,313.9v-24
			c3.3,0,6-2.7,6-6l0,0c0-3.3,2.7-6,6-6c3.3,0,6,2.7,6,6v12c0,3.3-2.7,6-6,6c-3.3,0-6,2.7-6,6C34.6,311.3,31.9,313.9,28.6,313.9z"/>
	</g>
	<g>
		<path d="M64.6,319.9c0-3.3,2.7-6,6-6c3.3,0,6,2.7,6,6v12c0,3.3-2.7,6-6,6c-3.3,0-6,2.7-6,6c0,3.3-2.7,6-6,6s-6-2.7-6-6
			c0-3.3-2.7-6-6-6s-6-2.7-6-6v-12c0-3.3,2.7-6,6-6s6,2.7,6,6c0,3.3,2.7,6,6,6S64.6,323.3,64.6,319.9z M88.6,397.9c-3.3,0-6-2.7-6-6
			c0-3.3-2.7-6-6-6c-3.3,0-6-2.7-6-6v-12c0-3.3,2.7-6,6-6c3.3,0,6,2.7,6,6c0,3.3,2.7,6,6,6l0,0V397.9z M28.6,397.9v-24
			c3.3,0,6-2.7,6-6l0,0c0-3.3,2.7-6,6-6c3.3,0,6,2.7,6,6v12c0,3.3-2.7,6-6,6c-3.3,0-6,2.7-6,6C34.6,395.3,31.9,397.9,28.6,397.9z"/>
	</g>
	<g>
		<path d="M64.6,403.9c0-3.3,2.7-6,6-6c3.3,0,6,2.7,6,6v12c0,3.3-2.7,6-6,6c-3.3,0-6,2.7-6,6c0,3.3-2.7,6-6,6s-6-2.7-6-6
			c0-3.3-2.7-6-6-6s-6-2.7-6-6v-12c0-3.3,2.7-6,6-6s6,2.7,6,6c0,3.3,2.7,6,6,6S64.6,407.3,64.6,403.9z M88.6,481.9c-3.3,0-6-2.7-6-6
			c0-3.3-2.7-6-6-6c-3.3,0-6-2.7-6-6v-12c0-3.3,2.7-6,6-6c3.3,0,6,2.7,6,6c0,3.3,2.7,6,6,6l0,0V481.9z M28.6,481.9v-24
			c3.3,0,6-2.7,6-6l0,0c0-3.3,2.7-6,6-6c3.3,0,6,2.7,6,6v12c0,3.3-2.7,6-6,6c-3.3,0-6,2.7-6,6C34.6,479.3,31.9,481.9,28.6,481.9z"/>
	</g>
	<g>
		<path d="M64.6,487.9c0-3.3,2.7-6,6-6c3.3,0,6,2.7,6,6v12c0,3.3-2.7,6-6,6c-3.3,0-6,2.7-6,6c0,3.3-2.7,6-6,6s-6-2.7-6-6
			c0-3.3-2.7-6-6-6s-6-2.7-6-6v-12c0-3.3,2.7-6,6-6s6,2.7,6,6c0,3.3,2.7,6,6,6S64.6,491.3,64.6,487.9z M88.6,565.9c-3.3,0-6-2.7-6-6
			c0-3.3-2.7-6-6-6c-3.3,0-6-2.7-6-6v-12c0-3.3,2.7-6,6-6c3.3,0,6,2.7,6,6c0,3.3,2.7,6,6,6l0,0V565.9z M28.6,565.9v-24
			c3.3,0,6-2.7,6-6l0,0c0-3.3,2.7-6,6-6c3.3,0,6,2.7,6,6v12c0,3.3-2.7,6-6,6c-3.3,0-6,2.7-6,6C34.6,563.3,31.9,565.9,28.6,565.9z"/>
	</g>
	<g>
		<path d="M64.6,571.9c0-3.3,2.7-6,6-6c3.3,0,6,2.7,6,6v12c0,3.3-2.7,6-6,6c-3.3,0-6,2.7-6,6c0,3.3-2.7,6-6,6s-6-2.7-6-6
			c0-3.3-2.7-6-6-6s-6-2.7-6-6v-12c0-3.3,2.7-6,6-6s6,2.7,6,6c0,3.3,2.7,6,6,6S64.6,575.3,64.6,571.9z M88.6,649.9c-3.3,0-6-2.7-6-6
			c0-3.3-2.7-6-6-6c-3.3,0-6-2.7-6-6v-12c0-3.3,2.7-6,6-6c3.3,0,6,2.7,6,6c0,3.3,2.7,6,6,6l0,0V649.9z M28.6,649.9v-24
			c3.3,0,6-2.7,6-6l0,0c0-3.3,2.7-6,6-6c3.3,0,6,2.7,6,6v12c0,3.3-2.7,6-6,6c-3.3,0-6,2.7-6,6C34.6,647.3,31.9,649.9,28.6,649.9z"/>
	</g>
</g>
</svg>
